<?xml version="1.0" encoding="UTF-8"?>
<svg xmlns="http://www.w3.org/2000/svg" xmlns:xlink="http://www.w3.org/1999/xlink" width="24px" height="24px" viewBox="0 0 24 24" version="1.1">
<g id="surface1">
<path style=" stroke:none;fill-rule:nonzero;fill:rgb(0%,0%,0%);fill-opacity:1;" d="M 23.183594 15.917969 L 20 5.304688 C 19.871094 4.871094 19.550781 4.515625 19.132812 4.347656 L 19.082031 4.359375 L 19.132812 4.34375 C 18.089844 3.917969 17.003906 3.59375 15.894531 3.378906 C 15.488281 3.296875 15.09375 3.558594 15.015625 3.964844 C 14.933594 4.371094 15.199219 4.765625 15.605469 4.847656 C 16.023438 4.933594 16.4375 5.03125 16.839844 5.144531 C 17.167969 5.304688 17.328125 5.675781 17.226562 6.027344 C 17.121094 6.375 16.78125 6.597656 16.421875 6.558594 C 13.554688 5.820312 10.546875 5.8125 7.679688 6.539062 C 7.308594 6.628906 6.929688 6.429688 6.796875 6.074219 C 6.664062 5.71875 6.820312 5.320312 7.15625 5.144531 L 7.160156 5.144531 C 7.5625 5.035156 7.976562 4.933594 8.398438 4.851562 C 8.804688 4.769531 9.066406 4.375 8.988281 3.96875 C 8.90625 3.5625 8.511719 3.300781 8.105469 3.378906 C 6.996094 3.597656 5.914062 3.917969 4.867188 4.347656 C 4.449219 4.515625 4.128906 4.871094 4 5.300781 L 0.816406 15.917969 C 0.648438 16.488281 0.828125 17.101562 1.273438 17.488281 C 1.363281 17.566406 1.457031 17.640625 1.546875 17.71875 C 1.550781 17.71875 1.550781 17.722656 1.554688 17.722656 C 3.078125 18.957031 5.070312 19.902344 7.320312 20.449219 C 7.722656 20.546875 8.128906 20.300781 8.230469 19.898438 C 8.328125 19.496094 8.082031 19.089844 7.679688 18.992188 C 6.664062 18.75 5.679688 18.402344 4.738281 17.957031 L 4.746094 17.957031 C 4.472656 17.707031 4.421875 17.300781 4.621094 16.992188 C 4.820312 16.683594 5.214844 16.566406 5.550781 16.714844 C 7.332031 17.507812 9.570312 18 12 18 C 14.429688 18 16.667969 17.507812 18.449219 16.714844 C 18.785156 16.566406 19.179688 16.683594 19.378906 16.992188 C 19.578125 17.300781 19.527344 17.710938 19.253906 17.957031 L 19.261719 17.957031 C 18.320312 18.402344 17.335938 18.75 16.320312 18.992188 C 15.917969 19.089844 15.671875 19.496094 15.769531 19.898438 C 15.871094 20.300781 16.277344 20.546875 16.679688 20.449219 C 18.929688 19.902344 20.921875 18.957031 22.445312 17.722656 C 22.449219 17.722656 22.449219 17.71875 22.453125 17.71875 C 22.542969 17.640625 22.636719 17.566406 22.726562 17.488281 C 23.171875 17.101562 23.351562 16.488281 23.183594 15.917969 Z M 9 14.625 C 8.378906 14.625 7.875 14.121094 7.875 13.5 C 7.875 12.878906 8.378906 12.375 9 12.375 C 9.621094 12.375 10.125 12.878906 10.125 13.5 C 10.125 14.121094 9.621094 14.625 9 14.625 Z M 15 14.625 C 14.378906 14.625 13.875 14.121094 13.875 13.5 C 13.875 12.878906 14.378906 12.375 15 12.375 C 15.621094 12.375 16.125 12.878906 16.125 13.5 C 16.125 14.121094 15.621094 14.625 15 14.625 Z M 15 14.625 "/>
</g>
</svg>
